# xmcd
#
# Track frame offsets:
#       150
#       16251
#       33426
#       49947
#       65146
#       81830
#       98376
#       116416
#       131501
#       148857
#       165222
#       180378
#
# Disc length: 2645 seconds
#
# Revision: 2
# Processed by: cddbd v1.5.2PL0 Copyright (c) Steve Scherf et al.
# Submitted via: WhereIsIt 3.97
#
DISCID=940a530c
DTITLE=Lacuna Coil - Shallow Life
DYEAR=2009
DGENRE=Gothic
TTITLE0=Survive
TTITLE1=I Wont Tell You
TTITLE2=Not Enough
TTITLE3=I'm Not Afraid
TTITLE4=I Like It
TTITLE5=Underdog
TTITLE6=The Pain
TTITLE7=Spellbound
TTITLE8=Wide Awake
TTITLE9=The Maze
TTITLE10=Unchained
TTITLE11=Shallow Life
EXTD=
EXTT0=
EXTT1=
EXTT2=
EXTT3=
EXTT4=
EXTT5=
EXTT6=
EXTT7=
EXTT8=
EXTT9=
EXTT10=
EXTT11=
PLAYORDER=
